PathFileType	4	(X/Y/Z)	Patient4_TMGait_0pt5_02_right_02.trc.trc
DataRate	CameraRate	NumFrames	NumMarkers	Units	OrigDataRate	OrigDataStartFrame	OrigNumFrames
79.096045197740	79.096045197740	4	33	mm	79.096045197740	36	       141
Frame#	Time	Sacral			L.Shoulder			Chest			R.Shoulder			Neck			R.ASIS			L.ASIS			R.Thigh.Superior			R.Thigh.Lateral			R.Thigh.Inferior			R.Patella			L.Thigh.Superior			L.Thigh.Lateral			L.Thigh.Inferior			L.Patella			L.Shank.Superior			L.Shank.Lateral			L.Shank.Inferior			R.Shank.Superior			R.Shank.Lateral			R.Shank.Inferior			R.Heel			R.Midfoot.Superior			R.Midfoot.Lateral			R.Toe			L.Heel			L.Midfoot.Lateral			L.Midfoot.Superior			L.Toe			L.Elbow			L.Wrist			R.Elbow			R.Wrist			
		X1	Y1	Z1	X2	Y2	Z2	X3	Y3	Z3	X4	Y4	Z4	X5	Y5	Z5	X6	Y6	Z6	X7	Y7	Z7	X8	Y8	Z8	X9	Y9	Z9	X10	Y10	Z10	X11	Y11	Z11	X12	Y12	Z12	X13	Y13	Z13	X14	Y14	Z14	X15	Y15	Z15	X16	Y16	Z16	X17	Y17	Z17	X18	Y18	Z18	X19	Y19	Z19	X20	Y20	Z20	X21	Y21	Z21	X22	Y22	Z22	X23	Y23	Z23	X24	Y24	Z24	X25	Y25	Z25	X26	Y26	Z26	X27	Y27	Z27	X28	Y28	Z28	X29	Y29	Z29	X30	Y30	Z30	X31	Y31	Z31	X32	Y32	Z32	X33	Y33	Z33	

36	3.002500000000	544.637339940637	1002.181575672801	488.528407481457	735.641103398928	1437.826458962022	337.605336616822	817.156296003984	1364.068534095151	508.845923742113	710.188343275453	1433.283188614506	672.838452344890	715.590221009369	1493.824883611512	489.321937767092	759.079523243361	938.644365879108	628.715275424414	770.754357317030	960.346539476844	355.385069066055	820.819375381169	748.040556636713	602.642898416948	743.382590983143	634.670661186959	654.536797360039	832.207805551605	588.559740817456	581.758384035569	840.008041214665	499.893789928129	588.129291397094	801.946572268194	737.486536527132	384.660791180822	714.104165542000	625.618778033309	315.387431601081	787.026166679805	539.746594455048	383.977935619026	778.349028196814	457.513655798871	385.343514190154	719.812240596008	395.834197952166	375.240717521642	594.730950418258	329.641378265542	312.920675584659	591.679328876152	205.159857419464	378.067225047574	817.841160797850	409.470194300437	593.660748141231	748.872914245998	301.014754768981	649.284717478241	802.619698543953	209.429111151402	591.001963799616	680.448423213918	42.090437595676	552.021242109878	848.785272490793	98.355803336717	596.563939459805	760.332930317292	36.118309092669	631.001575887805	967.885417970673	48.680654298543	629.053339253133	411.372325036172	102.446869429289	402.829646132617	484.197653800727	75.627775720078	327.284831871693	580.328610351913	110.291831479502	356.982984173089	686.071747609145	34.126705464776	334.838950389949	738.563864913810	1090.818339484743	203.184437421279	980.041165792383	1001.013082192734	219.447129432579	603.774710889419	1096.288101225943	762.187476754508	649.533426714047	838.658612382907	767.266693987219	
37	3.015142857143	543.895963246696	1002.864996820396	491.663132311742	734.595297317179	1438.386805574202	339.841324915710	817.262490010064	1364.332862307885	510.435900813259	711.657139480640	1433.631617987309	675.299696536028	715.781381706043	1494.245582996135	491.762238261717	759.135798278994	939.302768755989	630.457582598162	769.376589561333	960.781910498329	357.106147329379	818.748624665578	747.318885706677	604.785138847691	740.140603463068	634.736708313624	656.299409819613	828.372112817336	587.906604220503	583.219190720448	835.336268880037	499.412798690064	589.117349538818	805.154263338824	739.794792973000	386.872077486816	721.174269849317	625.666935035318	317.482569749275	796.865742564745	541.330127724646	385.793906718905	789.156102221580	457.833389914887	386.578535871044	728.508025631376	396.290179271568	376.649893341190	601.027154485723	334.720521128904	314.405582811504	594.204242605028	209.995422540343	378.623126852565	812.822582547755	409.151506259069	594.666360925264	743.495473935915	300.846032254297	650.033863987858	796.784637000853	209.213283938700	591.474821906939	674.153775662301	42.042378252918	552.176893548850	842.474073329831	98.329053003354	596.787179714103	753.999192298594	36.059222808515	631.162001998458	961.564784408674	48.694855017132	629.234729065874	410.103761516957	114.974183899511	402.734448036703	481.745689346107	84.807389489282	327.269475359497	579.483509895256	114.473999550176	357.178376200049	680.804410860654	33.412046279095	335.199310099835	735.993446889562	1090.595968442160	206.970598479436	975.363195833479	994.418492553442	223.439671225134	610.069473963043	1095.016961563946	766.037894138116	665.041820342109	839.213991941865	770.404951947461	
38	3.027785714286	543.017483961079	1003.493605898851	494.718455117348	733.317506195799	1438.810537202104	341.898344406464	817.296228495465	1364.507949056402	511.780702672271	713.162785512619	1433.860601852641	677.599776683620	715.868695197846	1494.559958645874	494.050511182971	759.088025545882	939.869007363449	632.079734721005	767.908936048659	961.034758464849	358.710147746214	816.540132980919	746.540567716824	606.791685442695	736.868084578370	634.744774864840	658.026264241019	824.430671093844	587.223282788138	584.570838822825	830.579537099557	498.910468106322	590.062653506038	808.171758458491	742.185946876605	388.998940771893	728.098810842923	625.975687479446	319.359740073873	806.413136216965	543.270853138308	387.429607674641	799.741767027443	458.604154938824	387.735255802632	737.246983001573	397.113357192961	377.902985569063	607.584536116310	339.987344723930	315.801002659795	597.193965674236	215.136238592787	379.162697370741	807.741095912971	408.800375583661	595.618446202732	738.105909361163	300.633274317826	650.758598124849	790.923906487842	208.966133064779	591.899301530449	667.818255707229	42.004950936115	552.314210236998	836.144116382598	98.252501018456	596.963126921894	747.627760371602	35.992991305774	631.294828209620	955.220584420561	48.610485243254	629.376804112934	409.673187202288	127.557634897018	402.691817330380	480.101180377539	94.317781123392	327.262695943295	579.240961223906	119.067789066773	357.430873195199	676.214999028068	32.923813087166	335.450809003424	733.041264165192	1090.212152675113	210.585157042681	970.005506735755	987.302308099437	226.921150892834	616.745580978264	1093.778350285436	770.119207232366	681.008767376447	840.167547311663	773.639213926518	
39	3.040428571429	542.017759239691	1004.071002093753	497.671059352326	731.880264117064	1439.104233268613	343.767483596694	817.269732919387	1364.594356295613	512.895105564261	714.678861598175	1433.983004272358	679.714618063080	715.877995100926	1494.783135674870	496.160793735923	758.932277322300	940.341733475776	633.618101956162	766.364880778522	961.118363907376	360.216499653948	814.287596781031	745.766647300946	608.627906149501	733.688677020136	634.712252097729	659.704528178039	820.512016610091	586.536798642928	585.804363870676	825.867020237914	498.393596260041	590.962506618006	810.912748858398	744.650174286586	391.060747865284	734.721797675548	626.587396577448	321.012276090383	815.483130199785	545.574823466227	388.869439338194	809.949085929861	459.840127897645	388.764856976081	745.891379211353	398.310423082365	378.962948497504	614.294160848643	345.297716147251	317.072153810230	600.673802625822	220.390006329333	379.650109473351	802.706082786837	408.421039538614	596.503373245631	732.798263032508	300.398240855864	651.467956000959	785.090341296264	208.691775794632	592.269149509635	661.452727305403	41.981554897253	552.438473163248	829.802714771254	98.140986751517	597.099321523921	741.231679985510	35.926829199828	631.406520621378	948.863399499994	48.449035976358	629.488810225796	410.202553518676	139.666868850251	402.709937909638	479.442672596806	103.745062978170	327.256854880711	579.751933579585	123.896592891733	357.684391793364	672.658866618005	32.709529210672	335.511641447068	729.696944339145	1089.673351919764	214.043288822670	963.898259705075	979.642002565316	229.826935317170	623.819425363813	1092.593449768048	774.389043002316	697.376032305720	841.542254835830	776.924339765124	
